<svg xmlns="http://www.w3.org/2000/svg" viewBox="0 0 180 180"><g id="Layer_2" data-name="Layer 2"><g id="Layer_1-2" data-name="Layer 1"><path d="M119.93,174.86c1.83-.64,3.64-1.34,5.41-2.1,1-.41,1.92-.86,2.87-1.3.64-.3,1.27-.61,1.9-.93a89.29,89.29,0,0,0,45.63-53.18c.21-.67.41-1.34.61-2,.44-1.52.85-3.06,1.22-4.62.31-1.34.6-2.7.86-4.06.14-.75.28-1.5.4-2.25.33-2,.58-4,.77-6.05l.12-1.55c.16-2.22.27-4.45.28-6.71V90A90,90,0,0,0,0,90c0,2.3.12,4.58.29,6.84,0,.51.07,1,.11,1.52q.28,3,.76,6c.13.82.29,1.62.44,2.43.23,1.22.49,2.43.77,3.64.42,1.85.92,3.68,1.45,5.48.12.39.23.79.35,1.17a89.15,89.15,0,0,0,46.08,53.63l1.38.67c1,.49,2.1,1,3.17,1.43,1.74.75,3.52,1.42,5.32,2.06l1.44.49c2.19.73,4.41,1.39,6.67,1.95v0l1.68.38h0l1.38.31h0a89.77,89.77,0,0,0,37.5,0v0l1.65-.39h0l1.39-.32h0q3.39-.85,6.67-2Zm7.06-6.3c-.91.43-1.83.85-2.75,1.25-1.71.72-3.43,1.41-5.2,2-.41.15-.82.28-1.23.42-2.1.7-4.23,1.36-6.41,1.91a22.17,22.17,0,0,0-3.11-6.71c-5.72-8.74-8.55-15.74-8.55-21.63a16.49,16.49,0,0,1,4.84-11.62h60.14a87.48,87.48,0,0,1-36,33.48Zm-18.66,6.33a87,87,0,0,1-18,2h0a86.43,86.43,0,0,1-18-1.83,16.64,16.64,0,0,0,.36-3.51,23.4,23.4,0,0,0-.69-5.42,46.24,46.24,0,0,1-1.58-10.76c0-7,3-12.39,10.28-21.11h19.83a18.82,18.82,0,0,0-3.86,11.53c0,6.54,3,14.2,9.05,23.44a19.08,19.08,0,0,1,2.68,5.71Zm-39.17-.58c-2.2-.54-4.34-1.18-6.45-1.88-.48-.15-1-.31-1.42-.48q-2.62-.91-5.16-2c-1.05-.44-2.08-.92-3.1-1.4l-1.34-.65a87.48,87.48,0,0,1-36.41-33.71H76.55c-6.32,7.81-9.3,13.45-9.3,21.14a49.38,49.38,0,0,0,1.62,11.47,20,20,0,0,1,.61,4.68,13.38,13.38,0,0,1-.29,2.81ZM90,3.15c1.5,0,3,0,4.46.11A87,87,0,0,1,176.85,90v.09c0,2.17-.11,4.32-.27,6.45,0,.51-.07,1-.12,1.51-.17,2-.42,3.9-.73,5.82-.12.73-.25,1.46-.39,2.18-.24,1.3-.52,2.59-.82,3.87-.36,1.52-.76,3-1.19,4.52-.19.65-.38,1.28-.58,1.92a86.88,86.88,0,0,1-6.24,14.7h-42.7v-9.4l9.2-2.31c.19-10.29.28-22.82.28-31.94V65.67c0-13.15-2.15-18.31-10.34-18.31-4.38,0-9.14,2.24-13.35,5.36V87.41c0,9,.1,22,.3,32.48l8.1,1.77v9.4H60.92v-9.4l9.19-2.31c.19-10.29.29-22.82.29-31.94V65.67c0-13.15-2.15-18.31-10.34-18.31-4.39,0-9.14,2.24-13.35,5.36V87.41c0,9,.1,22,.3,32.48l8.1,1.77v9.4H13.49a86.43,86.43,0,0,1-6.31-14.9c-.12-.38-.23-.76-.34-1.14-.52-1.73-1-3.49-1.4-5.26-.27-1.17-.53-2.35-.75-3.54-.15-.77-.29-1.55-.42-2.33C4,102,3.72,100,3.54,98.08c0-.49-.08-1-.11-1.47-.17-2.19-.28-4.39-.28-6.61A87,87,0,0,1,90,3.15Z"/></g></g></svg>