<svg id="Layer_1" data-name="Layer 1" xmlns="http://www.w3.org/2000/svg" viewBox="0 0 160 90"><defs><style>.cls-1{fill:#242424;}</style></defs><path class="cls-1" d="M27.67,78H10l.89-3.53V50.59L10,47.05H27.67l4.86,4.87v6L29.22,61.2,33,65v7.73ZM25.9,54.79,25,53l-1.76-.88H17.94l-.44.44v5.75l.44.44h5.31L25,57.89l.89-1.77ZM25.9,67,25,65.18,22.8,64.07H17.94l-.44.45v7.29l.66.66H22.8L25,71.37l.89-1.77Z"/><path class="cls-1" d="M56.86,78H45.37l-5.75-5.75V52.8l5.75-5.75H56.86l5.75,5.75V72.25ZM55.53,55l-.88-1.77-1.77-.88H49.35l-1.77.88L46.69,55V69.6l.89,1.77,1.77.88h3.53l1.77-.88.88-1.77Z"/><path class="cls-1" d="M102.63,50.59,94.67,78H90.12l-5-18.35L85,58.11l-.22,1.54L79.77,78H75.22l-8-27.41L65.5,47.05h8.84l-.45,3.54L77.43,63l.22,1.77L77.87,63l4.42-15.92H88L92.46,63l.22,1.77L92.9,63l3.54-12.38L96,47.05h8.4Z"/><path class="cls-1" d="M125.42,78H107.29l.89-3.53V50.59l-.89-3.54H125l2.21,6.64-4-1.33h-8l-.44.44v5.31l.44.44H119l3.31-1.11V65L119,63.85h-3.76l-.44.45v7.29l.66.66h7.74l4.64-1.54Z"/><path class="cls-1" d="M144.44,78H132.28l-2.43-7.29,4.51,1.54h6.1l1.77-.88.88-1.77V66.73l-1.54-1.55-6.64-1.55-4.2-4.2V52.8l5.75-5.75H148l2.21,6.64-4-1.33h-5.75l-1.77.88L137.81,55v1.77l1.55,1.55L146,59.88l4.2,4.19v8.18Z"/><path class="cls-1" d="M31.7,43l.88-3.54V23.5l.22-1.77-.66,1.77L24.62,40.73H24.4L16.89,23.5l-.67-1.77.22,1.77V39.41L17.33,43H9.81l.89-3.54V15.54L9.81,12h8.62l6.19,14,.22,1,.23-1,6.18-14h8.63L39,15.54V39.41L39.88,43Z"/><path class="cls-1" d="M61.78,43l.44-3.54-.88-3.54-.45-.44h-8.4l-.44.44-.88,3.54L51.61,43H43.43l1.77-3.54,6.63-24.54L51.17,12H63.1l-.66,2.87,6.63,24.54L70.84,43Zm-4.86-25.2-.23-1.33-.22,1.33L53.6,29.68l.44.45h5.31l.44-.45Z"/><path class="cls-1" d="M92.07,43H80.58l-6.19-6.19V18.19L80.58,12h11l2.43,7.29-4.55-1.54H84.78l-2.21,1.1-1.11,2.21V33.88l1.11,2.21,2.21,1.11h5.08l4.64-1.55Z"/><path class="cls-1" d="M115.3,21.73l6.18,17,2.44,4.2h-9.29l-.44-4-4-11.94h-.66l-2.87,2.87-.45.89v8.62l.89,3.54h-8.4l.88-3.54V15.54L98.72,12h8.4l-.89,3.54v7.51l-.22.66,9.07-9.06L116,12h8.18l.44.44Z"/></svg>